<svg xmlns="http://www.w3.org/2000/svg" xmlns:xlink="http://www.w3.org/1999/xlink" contentStyleType="text/css" data-diagram-type="CLASS" height="1109px" preserveAspectRatio="none" style="width:464px;height:1109px;background:#FFFFFF;" version="1.1" viewBox="0 0 464 1109" width="464px" zoomAndPan="magnify"><defs/><g><!--class Persona--><g class="entity" data-entity="Persona" data-source-line="6" data-uid="ent0002" id="entity_Persona"><rect fill="#F1F1F1" height="171.2656" rx="2.5" ry="2.5" style="stroke:#181818;stroke-width:0.5;" width="162.5889" x="7" y="931"/><ellipse cx="56.4204" cy="947" fill="#ADD1B2" rx="11" ry="11" style="stroke:#181818;stroke-width:1;"/><path d="M59.186,942.875 Q59.3423,942.6563 59.5298,942.5469 Q59.7173,942.4375 59.936,942.4375 Q60.311,942.4375 60.5454,942.7031 Q60.7798,942.9531 60.7798,943.5625 L60.7798,945.0156 Q60.7798,945.625 60.5454,945.8906 Q60.311,946.1563 59.936,946.1563 Q59.5923,946.1563 59.3892,945.9531 Q59.186,945.7656 59.0767,945.25 Q59.0298,944.8906 58.8423,944.7031 Q58.5142,944.3281 57.9048,944.1094 Q57.2954,943.8906 56.6704,943.8906 Q55.9048,943.8906 55.2642,944.2188 Q54.6392,944.5469 54.1392,945.2969 Q53.6548,946.0469 53.6548,947.0781 L53.6548,948.1719 Q53.6548,949.4063 54.5454,950.2344 Q55.436,951.0469 57.0298,951.0469 Q57.9673,951.0469 58.6235,950.7969 Q59.0142,950.6406 59.436,950.2031 Q59.7017,949.9375 59.8423,949.8594 Q59.9985,949.7813 60.2017,949.7813 Q60.5298,949.7813 60.7798,950.0469 Q61.0454,950.2969 61.0454,950.6406 Q61.0454,950.9844 60.7017,951.3906 Q60.2017,951.9688 59.4048,952.2969 Q58.3267,952.75 57.0298,952.75 Q55.5142,952.75 54.311,952.125 Q53.3267,951.625 52.6392,950.5625 Q51.9517,949.4844 51.9517,948.2031 L51.9517,947.0469 Q51.9517,945.7188 52.561,944.5781 Q53.186,943.4219 54.2798,942.8125 Q55.3735,942.1875 56.6079,942.1875 Q57.3423,942.1875 57.9829,942.3594 Q58.6392,942.5156 59.186,942.875 Z " fill="#000000"/><text fill="#000000" font-family="sans-serif" font-size="14" font-weight="bold" lengthAdjust="spacing" textLength="55.248" x="76.9204" y="952.7285">Persona</text><line style="stroke:#181818;stroke-width:0.5;" x1="8" x2="168.5889" y1="963" y2="963"/><text fill="#000000" font-family="sans-serif" font-size="14" lengthAdjust="spacing" textLength="77.0342" x="13" y="981.5332">-_cedula: str</text><text fill="#000000" font-family="sans-serif" font-size="14" lengthAdjust="spacing" textLength="83.248" x="13" y="999.1426">-_nombre: str</text><text fill="#000000" font-family="sans-serif" font-size="14" lengthAdjust="spacing" textLength="84.041" x="13" y="1016.752">-_apellido: str</text><text fill="#000000" font-family="sans-serif" font-size="14" lengthAdjust="spacing" textLength="143.582" x="13" y="1034.3613">+cedula: str &#171;property&#187;</text><text fill="#000000" font-family="sans-serif" font-size="14" lengthAdjust="spacing" textLength="149.7959" x="13" y="1051.9707">+nombre: str &#171;property&#187;</text><text fill="#000000" font-family="sans-serif" font-size="14" lengthAdjust="spacing" textLength="150.5889" x="13" y="1069.5801">+apellido: str &#171;property&#187;</text><line style="stroke:#181818;stroke-width:0.5;" x1="8" x2="168.5889" y1="1076.6563" y2="1076.6563"/><text fill="#000000" font-family="sans-serif" font-size="14" lengthAdjust="spacing" textLength="87.5273" x="13" y="1095.1895">+__str__(): str</text></g><!--class Estudiante--><g class="entity" data-entity="Estudiante" data-source-line="16" data-uid="ent0003" id="entity_Estudiante"><rect fill="#F1F1F1" height="100.8281" rx="2.5" ry="2.5" style="stroke:#181818;stroke-width:0.5;" width="158.6719" x="9" y="681.5"/><ellipse cx="48.7979" cy="697.5" fill="#ADD1B2" rx="11" ry="11" style="stroke:#181818;stroke-width:1;"/><path d="M51.5635,693.375 Q51.7198,693.1563 51.9073,693.0469 Q52.0948,692.9375 52.3135,692.9375 Q52.6885,692.9375 52.9229,693.2031 Q53.1573,693.4531 53.1573,694.0625 L53.1573,695.5156 Q53.1573,696.125 52.9229,696.3906 Q52.6885,696.6563 52.3135,696.6563 Q51.9698,696.6563 51.7667,696.4531 Q51.5635,696.2656 51.4542,695.75 Q51.4073,695.3906 51.2198,695.2031 Q50.8917,694.8281 50.2823,694.6094 Q49.6729,694.3906 49.0479,694.3906 Q48.2823,694.3906 47.6417,694.7188 Q47.0167,695.0469 46.5167,695.7969 Q46.0323,696.5469 46.0323,697.5781 L46.0323,698.6719 Q46.0323,699.9063 46.9229,700.7344 Q47.8135,701.5469 49.4073,701.5469 Q50.3448,701.5469 51.001,701.2969 Q51.3917,701.1406 51.8135,700.7031 Q52.0792,700.4375 52.2198,700.3594 Q52.376,700.2813 52.5792,700.2813 Q52.9073,700.2813 53.1573,700.5469 Q53.4229,700.7969 53.4229,701.1406 Q53.4229,701.4844 53.0792,701.8906 Q52.5792,702.4688 51.7823,702.7969 Q50.7042,703.25 49.4073,703.25 Q47.8917,703.25 46.6885,702.625 Q45.7042,702.125 45.0167,701.0625 Q44.3292,699.9844 44.3292,698.7031 L44.3292,697.5469 Q44.3292,696.2188 44.9385,695.0781 Q45.5635,693.9219 46.6573,693.3125 Q47.751,692.6875 48.9854,692.6875 Q49.7198,692.6875 50.3604,692.8594 Q51.0167,693.0156 51.5635,693.375 Z " fill="#000000"/><text fill="#000000" font-family="sans-serif" font-size="14" font-weight="bold" lengthAdjust="spacing" textLength="71.5654" x="68.3085" y="703.2285">Estudiante</text><line style="stroke:#181818;stroke-width:0.5;" x1="10" x2="166.6719" y1="713.5" y2="713.5"/><text fill="#000000" font-family="sans-serif" font-size="14" lengthAdjust="spacing" textLength="80.124" x="15" y="732.0332">-_carrera: str</text><text fill="#000000" font-family="sans-serif" font-size="14" lengthAdjust="spacing" textLength="146.6719" x="15" y="749.6426">+carrera: str &#171;property&#187;</text><line style="stroke:#181818;stroke-width:0.5;" x1="10" x2="166.6719" y1="756.7188" y2="756.7188"/><text fill="#000000" font-family="sans-serif" font-size="14" lengthAdjust="spacing" textLength="87.5273" x="15" y="775.252">+__str__(): str</text></g><!--class Libro--><g class="entity" data-entity="Libro" data-source-line="22" data-uid="ent0004" id="entity_Libro"><rect fill="#F1F1F1" height="241.7031" rx="2.5" ry="2.5" style="stroke:#181818;stroke-width:0.5;" width="188.292" x="269.5" y="611"/><ellipse cx="341.8994" cy="627" fill="#ADD1B2" rx="11" ry="11" style="stroke:#181818;stroke-width:1;"/><path d="M344.665,622.875 Q344.8213,622.6563 345.0088,622.5469 Q345.1963,622.4375 345.415,622.4375 Q345.79,622.4375 346.0244,622.7031 Q346.2588,622.9531 346.2588,623.5625 L346.2588,625.0156 Q346.2588,625.625 346.0244,625.8906 Q345.79,626.1563 345.415,626.1563 Q345.0713,626.1563 344.8682,625.9531 Q344.665,625.7656 344.5557,625.25 Q344.5088,624.8906 344.3213,624.7031 Q343.9932,624.3281 343.3838,624.1094 Q342.7744,623.8906 342.1494,623.8906 Q341.3838,623.8906 340.7432,624.2188 Q340.1182,624.5469 339.6182,625.2969 Q339.1338,626.0469 339.1338,627.0781 L339.1338,628.1719 Q339.1338,629.4063 340.0244,630.2344 Q340.915,631.0469 342.5088,631.0469 Q343.4463,631.0469 344.1025,630.7969 Q344.4932,630.6406 344.915,630.2031 Q345.1807,629.9375 345.3213,629.8594 Q345.4775,629.7813 345.6807,629.7813 Q346.0088,629.7813 346.2588,630.0469 Q346.5244,630.2969 346.5244,630.6406 Q346.5244,630.9844 346.1807,631.3906 Q345.6807,631.9688 344.8838,632.2969 Q343.8057,632.75 342.5088,632.75 Q340.9932,632.75 339.79,632.125 Q338.8057,631.625 338.1182,630.5625 Q337.4307,629.4844 337.4307,628.2031 L337.4307,627.0469 Q337.4307,625.7188 338.04,624.5781 Q338.665,623.4219 339.7588,622.8125 Q340.8525,622.1875 342.0869,622.1875 Q342.8213,622.1875 343.4619,622.3594 Q344.1182,622.5156 344.665,622.875 Z " fill="#000000"/><text fill="#000000" font-family="sans-serif" font-size="14" font-weight="bold" lengthAdjust="spacing" textLength="34.9932" x="362.3994" y="632.7285">Libro</text><line style="stroke:#181818;stroke-width:0.5;" x1="270.5" x2="456.792" y1="643" y2="643"/><text fill="#000000" font-family="sans-serif" font-size="14" lengthAdjust="spacing" textLength="61.4619" x="275.5" y="661.5332">-_isbn: str</text><text fill="#000000" font-family="sans-serif" font-size="14" lengthAdjust="spacing" textLength="65.3516" x="275.5" y="679.1426">-_titulo: str</text><text fill="#000000" font-family="sans-serif" font-size="14" lengthAdjust="spacing" textLength="67.6895" x="275.5" y="696.752">-_autor: str</text><text fill="#000000" font-family="sans-serif" font-size="14" lengthAdjust="spacing" textLength="109.7441" x="275.5" y="714.3613">-_disponible: bool</text><text fill="#000000" font-family="sans-serif" font-size="14" lengthAdjust="spacing" textLength="128.0098" x="275.5" y="731.9707">+isbn: str &#171;property&#187;</text><text fill="#000000" font-family="sans-serif" font-size="14" lengthAdjust="spacing" textLength="131.8994" x="275.5" y="749.5801">+titulo: str &#171;property&#187;</text><text fill="#000000" font-family="sans-serif" font-size="14" lengthAdjust="spacing" textLength="134.2373" x="275.5" y="767.1895">+autor: str &#171;property&#187;</text><text fill="#000000" font-family="sans-serif" font-size="14" lengthAdjust="spacing" textLength="176.292" x="275.5" y="784.7988">+disponible: bool &#171;property&#187;</text><line style="stroke:#181818;stroke-width:0.5;" x1="270.5" x2="456.792" y1="791.875" y2="791.875"/><text fill="#000000" font-family="sans-serif" font-size="14" lengthAdjust="spacing" textLength="102.3203" x="275.5" y="810.4082">+prestar(): None</text><text fill="#000000" font-family="sans-serif" font-size="14" lengthAdjust="spacing" textLength="111.665" x="275.5" y="828.0176">+devolver(): None</text><text fill="#000000" font-family="sans-serif" font-size="14" lengthAdjust="spacing" textLength="87.5273" x="275.5" y="845.627">+__str__(): str</text></g><!--class Prestamo--><g class="entity" data-entity="Prestamo" data-source-line="36" data-uid="ent0005" id="entity_Prestamo"><rect fill="#F1F1F1" height="224.0938" rx="2.5" ry="2.5" style="stroke:#181818;stroke-width:0.5;" width="229.54" x="130.5" y="309"/><ellipse cx="209.1167" cy="325" fill="#ADD1B2" rx="11" ry="11" style="stroke:#181818;stroke-width:1;"/><path d="M211.8823,320.875 Q212.0386,320.6563 212.2261,320.5469 Q212.4136,320.4375 212.6323,320.4375 Q213.0073,320.4375 213.2417,320.7031 Q213.4761,320.9531 213.4761,321.5625 L213.4761,323.0156 Q213.4761,323.625 213.2417,323.8906 Q213.0073,324.1563 212.6323,324.1563 Q212.2886,324.1563 212.0854,323.9531 Q211.8823,323.7656 211.7729,323.25 Q211.7261,322.8906 211.5386,322.7031 Q211.2104,322.3281 210.6011,322.1094 Q209.9917,321.8906 209.3667,321.8906 Q208.6011,321.8906 207.9604,322.2188 Q207.3354,322.5469 206.8354,323.2969 Q206.3511,324.0469 206.3511,325.0781 L206.3511,326.1719 Q206.3511,327.4063 207.2417,328.2344 Q208.1323,329.0469 209.7261,329.0469 Q210.6636,329.0469 211.3198,328.7969 Q211.7104,328.6406 212.1323,328.2031 Q212.3979,327.9375 212.5386,327.8594 Q212.6948,327.7813 212.8979,327.7813 Q213.2261,327.7813 213.4761,328.0469 Q213.7417,328.2969 213.7417,328.6406 Q213.7417,328.9844 213.3979,329.3906 Q212.8979,329.9688 212.1011,330.2969 Q211.0229,330.75 209.7261,330.75 Q208.2104,330.75 207.0073,330.125 Q206.0229,329.625 205.3354,328.5625 Q204.6479,327.4844 204.6479,326.2031 L204.6479,325.0469 Q204.6479,323.7188 205.2573,322.5781 Q205.8823,321.4219 206.9761,320.8125 Q208.0698,320.1875 209.3042,320.1875 Q210.0386,320.1875 210.6792,320.3594 Q211.3354,320.5156 211.8823,320.875 Z " fill="#000000"/><text fill="#000000" font-family="sans-serif" font-size="14" font-weight="bold" lengthAdjust="spacing" textLength="63.8066" x="229.6167" y="330.7285">Prestamo</text><line style="stroke:#181818;stroke-width:0.5;" x1="131.5" x2="359.04" y1="341" y2="341"/><text fill="#000000" font-family="sans-serif" font-size="14" lengthAdjust="spacing" textLength="77.8135" x="136.5" y="359.5332">-_libro: Libro</text><text fill="#000000" font-family="sans-serif" font-size="14" lengthAdjust="spacing" textLength="150.9922" x="136.5" y="377.1426">-_estudiante: Estudiante</text><text fill="#000000" font-family="sans-serif" font-size="14" lengthAdjust="spacing" textLength="136.1719" x="136.5" y="394.752">-_fecha_prestamo: str</text><text fill="#000000" font-family="sans-serif" font-size="14" lengthAdjust="spacing" textLength="144.751" x="136.5" y="412.3613">-_fecha_devolucion: str</text><text fill="#000000" font-family="sans-serif" font-size="14" lengthAdjust="spacing" textLength="83.2686" x="136.5" y="429.9707">-_activo: bool</text><text fill="#000000" font-family="sans-serif" font-size="14" lengthAdjust="spacing" textLength="144.3613" x="136.5" y="447.5801">+libro: Libro &#171;property&#187;</text><text fill="#000000" font-family="sans-serif" font-size="14" lengthAdjust="spacing" textLength="217.54" x="136.5" y="465.1895">+estudiante: Estudiante &#171;property&#187;</text><text fill="#000000" font-family="sans-serif" font-size="14" lengthAdjust="spacing" textLength="149.8164" x="136.5" y="482.7988">+activo: bool &#171;property&#187;</text><line style="stroke:#181818;stroke-width:0.5;" x1="131.5" x2="359.04" y1="489.875" y2="489.875"/><text fill="#000000" font-family="sans-serif" font-size="14" lengthAdjust="spacing" textLength="184.8164" x="136.5" y="508.4082">+registrar_devolucion(): None</text><text fill="#000000" font-family="sans-serif" font-size="14" lengthAdjust="spacing" textLength="87.5273" x="136.5" y="526.0176">+__str__(): str</text></g><!--class Biblioteca--><g class="entity" data-entity="Biblioteca" data-source-line="49" data-uid="ent0006" id="entity_Biblioteca"><rect fill="#F1F1F1" height="224.0938" rx="2.5" ry="2.5" style="stroke:#181818;stroke-width:0.5;" width="319.7744" x="85.5" y="7"/><ellipse cx="207.6855" cy="23" fill="#ADD1B2" rx="11" ry="11" style="stroke:#181818;stroke-width:1;"/><path d="M210.4512,18.875 Q210.6074,18.6563 210.7949,18.5469 Q210.9824,18.4375 211.2012,18.4375 Q211.5762,18.4375 211.8105,18.7031 Q212.0449,18.9531 212.0449,19.5625 L212.0449,21.0156 Q212.0449,21.625 211.8105,21.8906 Q211.5762,22.1563 211.2012,22.1563 Q210.8574,22.1563 210.6543,21.9531 Q210.4512,21.7656 210.3418,21.25 Q210.2949,20.8906 210.1074,20.7031 Q209.7793,20.3281 209.1699,20.1094 Q208.5605,19.8906 207.9355,19.8906 Q207.1699,19.8906 206.5293,20.2188 Q205.9043,20.5469 205.4043,21.2969 Q204.9199,22.0469 204.9199,23.0781 L204.9199,24.1719 Q204.9199,25.4063 205.8105,26.2344 Q206.7012,27.0469 208.2949,27.0469 Q209.2324,27.0469 209.8887,26.7969 Q210.2793,26.6406 210.7012,26.2031 Q210.9668,25.9375 211.1074,25.8594 Q211.2637,25.7813 211.4668,25.7813 Q211.7949,25.7813 212.0449,26.0469 Q212.3105,26.2969 212.3105,26.6406 Q212.3105,26.9844 211.9668,27.3906 Q211.4668,27.9688 210.6699,28.2969 Q209.5918,28.75 208.2949,28.75 Q206.7793,28.75 205.5762,28.125 Q204.5918,27.625 203.9043,26.5625 Q203.2168,25.4844 203.2168,24.2031 L203.2168,23.0469 Q203.2168,21.7188 203.8262,20.5781 Q204.4512,19.4219 205.5449,18.8125 Q206.6387,18.1875 207.873,18.1875 Q208.6074,18.1875 209.248,18.3594 Q209.9043,18.5156 210.4512,18.875 Z " fill="#000000"/><text fill="#000000" font-family="sans-serif" font-size="14" font-weight="bold" lengthAdjust="spacing" textLength="66.9033" x="228.1855" y="28.7285">Biblioteca</text><line style="stroke:#181818;stroke-width:0.5;" x1="86.5" x2="404.2744" y1="39" y2="39"/><text fill="#000000" font-family="sans-serif" font-size="14" lengthAdjust="spacing" textLength="83.248" x="91.5" y="57.5332">-_nombre: str</text><text fill="#000000" font-family="sans-serif" font-size="14" lengthAdjust="spacing" textLength="70.793" x="91.5" y="75.1426">-_libros: list</text><text fill="#000000" font-family="sans-serif" font-size="14" lengthAdjust="spacing" textLength="108.9443" x="91.5" y="92.752">-_estudiantes: list</text><text fill="#000000" font-family="sans-serif" font-size="14" lengthAdjust="spacing" textLength="102.6963" x="91.5" y="110.3613">-_prestamos: list</text><line style="stroke:#181818;stroke-width:0.5;" x1="86.5" x2="404.2744" y1="117.4375" y2="117.4375"/><text fill="#000000" font-family="sans-serif" font-size="14" lengthAdjust="spacing" textLength="209.6992" x="91.5" y="135.9707">+registrar_libro(libro: Libro): None</text><text fill="#000000" font-family="sans-serif" font-size="14" lengthAdjust="spacing" textLength="275.0986" x="91.5" y="153.5801">+registrar_estudiante(est: Estudiante): None</text><text fill="#000000" font-family="sans-serif" font-size="14" lengthAdjust="spacing" textLength="307.7744" x="91.5" y="171.1895">+prestar_libro(isbn, cedula, fecha, fecha_dev): str</text><text fill="#000000" font-family="sans-serif" font-size="14" lengthAdjust="spacing" textLength="202.7061" x="91.5" y="188.7988">+devolver_libro(isbn, cedula): str</text><text fill="#000000" font-family="sans-serif" font-size="14" lengthAdjust="spacing" textLength="264.9541" x="91.5" y="206.4082">+consultar_prestamos_activos(cedula): list</text><text fill="#000000" font-family="sans-serif" font-size="14" lengthAdjust="spacing" textLength="87.5273" x="91.5" y="224.0176">+__str__(): str</text></g><!--link Estudiante to Persona--><g class="link" data-entity-1="Estudiante" data-entity-2="Persona" data-source-line="62" data-uid="lnk7" id="link_Estudiante_Persona"><path codeLine="62" d="M88.5,782.53 C88.5,823.44 88.5,864.42 88.5,912.8" fill="none" id="Estudiante-to-Persona" style="stroke:#181818;stroke-width:1;"/><polygon fill="none" points="88.5,930.8,94.5,912.8,82.5,912.8,88.5,930.8" style="stroke:#181818;stroke-width:1;"/><text fill="#000000" font-family="sans-serif" font-size="13" lengthAdjust="spacing" textLength="40.479" x="89.5" y="897.4951">hereda</text></g><!--reverse link Biblioteca to Libro--><g class="link" data-entity-1="Biblioteca" data-entity-2="Libro" data-source-line="63" data-uid="lnk8" id="link_Biblioteca_Libro"><path codeLine="63" d="M346.721,241.2206 C362.481,265.4606 369.93,281.94 378.5,309 C409.59,407.2 402.03,524.72 388.89,610.78" fill="none" id="Biblioteca-backto-Libro" style="stroke:#181818;stroke-width:1;"/><polygon fill="#181818" points="340.18,231.16,340.097,238.3706,346.721,241.2206,346.804,234.0099,340.18,231.16" style="stroke:#181818;stroke-width:1;"/><text fill="#000000" font-family="sans-serif" font-size="13" lengthAdjust="spacing" textLength="49.1499" x="400.5" y="426.4951">contiene</text><text fill="#000000" font-family="sans-serif" font-size="13" lengthAdjust="spacing" textLength="7.23" x="339.3215" y="252.737">1</text><text fill="#000000" font-family="sans-serif" font-size="13" lengthAdjust="spacing" textLength="19.5127" x="370.915" y="600.0177">1..*</text></g><!--reverse link Biblioteca to Estudiante--><g class="link" data-entity-1="Biblioteca" data-entity-2="Estudiante" data-source-line="64" data-uid="lnk9" id="link_Biblioteca_Estudiante"><path codeLine="64" d="M108.1983,240.234 C88.4283,263.804 78.64,280.93 67.5,309 C17.32,435.48 50.89,600.24 73.18,681.39" fill="none" id="Biblioteca-backto-Estudiante" style="stroke:#181818;stroke-width:1;"/><polygon fill="none" points="115.91,231.04,108.9895,233.0664,108.1983,240.234,115.1188,238.2076,115.91,231.04" style="stroke:#181818;stroke-width:1;"/><text fill="#000000" font-family="sans-serif" font-size="13" lengthAdjust="spacing" textLength="43.3481" x="68.5" y="426.4951">registra</text><text fill="#000000" font-family="sans-serif" font-size="13" lengthAdjust="spacing" textLength="7.23" x="99.9833" y="252.609">1</text><text fill="#000000" font-family="sans-serif" font-size="13" lengthAdjust="spacing" textLength="19.5127" x="50.7488" y="670.6799">0..*</text></g><!--reverse link Biblioteca to Prestamo--><g class="link" data-entity-1="Biblioteca" data-entity-2="Prestamo" data-source-line="65" data-uid="lnk10" id="link_Biblioteca_Prestamo"><path codeLine="65" d="M245.5,243.28 C245.5,268.63 245.5,283.56 245.5,308.9" fill="none" id="Biblioteca-backto-Prestamo" style="stroke:#181818;stroke-width:1;"/><polygon fill="#181818" points="245.5,231.28,241.5,237.28,245.5,243.28,249.5,237.28,245.5,231.28" style="stroke:#181818;stroke-width:1;"/><text fill="#000000" font-family="sans-serif" font-size="13" lengthAdjust="spacing" textLength="49.1499" x="246.5" y="275.4951">gestiona</text><text fill="#000000" font-family="sans-serif" font-size="13" lengthAdjust="spacing" textLength="7.23" x="238.2904" y="252.4888">1</text><text fill="#000000" font-family="sans-serif" font-size="13" lengthAdjust="spacing" textLength="19.5127" x="225.8662" y="297.9596">0..*</text></g><!--link Prestamo to Libro--><g class="link" data-entity-1="Prestamo" data-entity-2="Libro" data-source-line="66" data-uid="lnk11" id="link_Prestamo_Libro"><path codeLine="66" d="M287.93,533.12 C297.58,558.38 305.7295,579.7248 315.5095,605.3348" fill="none" id="Prestamo-to-Libro" style="stroke:#181818;stroke-width:1;"/><polygon fill="#181818" points="317.65,610.94,318.176,601.1052,315.8662,606.269,310.7024,603.9592,317.65,610.94" style="stroke:#181818;stroke-width:1;"/><text fill="#000000" font-family="sans-serif" font-size="13" lengthAdjust="spacing" textLength="57.8081" x="305.5" y="577.4951">referencia</text><text fill="#000000" font-family="sans-serif" font-size="13" lengthAdjust="spacing" textLength="19.5127" x="271.1752" y="554.6943">0..*</text><text fill="#000000" font-family="sans-serif" font-size="13" lengthAdjust="spacing" textLength="7.23" x="307.4865" y="600.188">1</text></g><!--link Prestamo to Estudiante--><g class="link" data-entity-1="Prestamo" data-entity-2="Estudiante" data-source-line="67" data-uid="lnk12" id="link_Prestamo_Estudiante"><path codeLine="67" d="M189.04,533.12 C163.28,583.81 136.7975,635.9407 116.5275,675.8407" fill="none" id="Prestamo-to-Estudiante" style="stroke:#181818;stroke-width:1;"/><polygon fill="#181818" points="113.81,681.19,121.4525,674.9778,116.0746,676.7323,114.3201,671.3544,113.81,681.19" style="stroke:#181818;stroke-width:1;"/><text fill="#000000" font-family="sans-serif" font-size="13" lengthAdjust="spacing" textLength="57.8081" x="173.5" y="577.4951">referencia</text><text fill="#000000" font-family="sans-serif" font-size="13" lengthAdjust="spacing" textLength="19.5127" x="165.641" y="554.6943">0..*</text><text fill="#000000" font-family="sans-serif" font-size="13" lengthAdjust="spacing" textLength="7.23" x="109.7782" y="670.8177">1</text></g><!--SRC=[bLJ1Qjmm4BtxAyIUDcaS4kZ9X8KKMYY44EW76DcU929QZHd92qdQVw-ibRKZHu7M5vcPfpTltaYoBygCakHUz5fQU-iSgMvoyBD7yqkzWRYgR0xvWSQ5pFNNOigzQX0Twg6gGb0y05aqKhnNmd-rQ7iO9YqROHqj8OFxZY0BoH6qLWEUWby4sobkRaR24SYzxdOnpLXAwOon16XRdsZRxTcnvf-bW-_MJOEInW5hGX81oKmT2_qF_Ptg24_CodOcSy8fDsdCpPaSKXOPb1tHg4xx_Zj47Micif8WHbpqAnKfPTS5IvYHm3f9SyVtQ63P2GVK1rY7FxFd8P3icKDwDgmv-hR48CseOVDQie_GFyjsZ4oPSSTKq3Jr2dFhPU_K0JD7UV5IpsKXHNyPUIbFyAIy5abCtJzwzitFHQ63dbsxmXqBlTZ6zsJTHoDNYSKz7kOY0zcMsvDhFI5F9RR-bzkKxuZ79pBFH_aYFW4N8emjBhC_P_mcBYUii3F3-KVEJdekaPgB8xVR16VDVhIRJRYkV-_IOzU8Po0OPCKciRdUYFEwzklbvVacdg1c5k4K-APNK9oXLm7AgZJ9noBr4P-kJ2EU_9y_Dx9AiOYfwrtOjiWWUFIAJQy-Xwva9FnV]--></g></svg>